<svg width="1512" height="982" viewBox="0 0 1512 982" fill="none" xmlns="http://www.w3.org/2000/svg">
<g clip-path="url(#clip0_346_220)">
<rect width="1512" height="982" fill="white"/>
<g clip-path="url(#clip1_346_220)">
<rect width="1512" height="2279" transform="translate(0 -469)" fill="#2D033B"/>
<g filter="url(#filter0_f_346_220)">
<path fill-rule="evenodd" clip-rule="evenodd" d="M357.746 -283.832C377.966 -279.955 398.564 -285.626 418.749 -281.561C441.796 -276.919 472.169 -278.64 484.624 -258.279C497.988 -236.429 476.159 -207.502 479.659 -181.982C482.444 -161.67 499.043 -146.053 502.776 -125.901C507.08 -102.662 514.179 -76.4541 503.044 -55.7226C491.949 -35.0659 463.163 -33.2043 445.114 -18.5457C426.195 -3.18004 418.027 30.3117 393.991 32.8454C368.88 35.4924 353.015 3.40993 329.656 -6.37492C310.847 -14.2533 289.777 -11.9842 270.591 -18.8446C247.324 -27.1643 213.178 -27.4651 204.602 -51.0908C195.267 -76.8057 229.727 -100.47 231.015 -127.867C232.053 -149.931 204.94 -169.024 211.142 -190.184C217.297 -211.179 249.387 -212.096 261.088 -230.461C275.595 -253.231 262.239 -294.176 285.626 -307.09C308.051 -319.472 332.697 -288.636 357.746 -283.832Z" fill="#C147E9"/>
</g>
<g filter="url(#filter1_f_346_220)">
<path fill-rule="evenodd" clip-rule="evenodd" d="M207.461 217.895C224.377 221.14 241.609 216.395 258.496 219.796C277.777 223.68 303.187 222.24 313.607 239.277C324.788 257.559 306.525 281.763 309.453 303.117C311.783 320.112 325.67 333.18 328.793 350.042C332.394 369.486 338.333 391.416 329.017 408.763C319.735 426.047 295.653 427.605 280.553 439.87C264.725 452.727 257.892 480.751 237.784 482.871C216.776 485.085 203.503 458.241 183.96 450.054C168.225 443.461 150.598 445.36 134.546 439.62C115.081 432.658 86.5147 432.407 79.3399 412.638C71.5306 391.122 100.36 371.321 101.438 348.397C102.306 329.935 79.623 313.96 84.812 296.254C89.9606 278.687 116.807 277.92 126.597 262.553C138.733 243.501 127.56 209.24 147.125 198.435C165.885 188.075 186.505 213.876 207.461 217.895Z" fill="#C147E9"/>
</g>
<g filter="url(#filter2_f_346_220)">
<path fill-rule="evenodd" clip-rule="evenodd" d="M1235.65 280.794C1254.82 284.468 1274.34 279.095 1293.47 282.947C1315.31 287.345 1344.09 285.714 1355.9 305.007C1368.56 325.71 1347.88 353.119 1351.19 377.3C1353.83 396.545 1369.56 411.344 1373.1 430.438C1377.18 452.457 1383.91 477.29 1373.36 496.933C1362.84 516.506 1335.56 518.27 1318.45 532.159C1300.52 546.719 1292.78 578.453 1270 580.854C1246.21 583.362 1231.17 552.963 1209.03 543.691C1191.21 536.226 1171.24 538.376 1153.06 531.876C1131.01 523.993 1098.65 523.708 1090.52 501.322C1081.67 476.957 1114.33 454.534 1115.55 428.575C1116.53 407.669 1090.84 389.578 1096.72 369.528C1102.55 349.635 1132.96 348.766 1144.05 331.365C1157.8 309.79 1145.14 270.993 1167.31 258.758C1188.56 247.025 1211.92 276.243 1235.65 280.794Z" fill="#C147E9"/>
</g>
<g filter="url(#filter3_f_346_220)">
<path fill-rule="evenodd" clip-rule="evenodd" d="M714.035 123.963C731.81 127.366 749.918 122.389 767.662 125.957C787.922 130.03 814.622 128.52 825.571 146.388C837.32 165.562 818.13 190.947 821.206 213.343C823.655 231.167 838.247 244.872 841.528 262.556C845.312 282.949 851.553 305.948 841.764 324.141C832.011 342.269 806.706 343.902 790.839 356.766C774.207 370.25 767.027 399.641 745.898 401.864C723.823 404.187 709.876 376.033 689.341 367.446C672.807 360.533 654.284 362.524 637.418 356.504C616.964 349.203 586.947 348.939 579.408 328.206C571.202 305.64 601.495 284.873 602.628 260.831C603.54 241.468 579.705 224.714 585.158 206.145C590.568 187.72 618.778 186.916 629.064 170.799C641.817 150.818 630.076 114.886 650.635 103.554C670.348 92.6881 692.015 119.748 714.035 123.963Z" fill="#C147E9"/>
</g>
<g filter="url(#filter4_f_346_220)">
<path fill-rule="evenodd" clip-rule="evenodd" d="M740.161 605.794C759.389 609.468 778.978 604.095 798.173 607.947C820.09 612.345 848.974 610.714 860.818 630.007C873.528 650.71 852.769 678.119 856.097 702.3C858.746 721.545 874.531 736.344 878.081 755.438C882.174 777.457 888.925 802.29 878.336 821.933C867.785 841.506 840.41 843.27 823.246 857.159C805.254 871.719 797.486 903.453 774.629 905.854C750.749 908.362 735.661 877.963 713.447 868.691C695.561 861.226 675.523 863.376 657.277 856.876C635.151 848.993 602.679 848.708 594.523 826.322C585.646 801.957 618.417 779.534 619.642 753.575C620.629 732.669 594.845 714.578 600.743 694.528C606.596 674.635 637.113 673.766 648.241 656.365C662.036 634.79 649.335 595.993 671.576 583.758C692.901 572.025 716.339 601.243 740.161 605.794Z" fill="#C147E9"/>
</g>
<g filter="url(#filter5_f_346_220)">
<path fill-rule="evenodd" clip-rule="evenodd" d="M102.161 534.794C121.389 538.468 140.978 533.095 160.173 536.947C182.09 541.345 210.974 539.714 222.818 559.007C235.528 579.71 214.769 607.119 218.097 631.3C220.746 650.545 236.531 665.344 240.081 684.438C244.174 706.457 250.925 731.29 240.336 750.933C229.785 770.506 202.41 772.27 185.246 786.159C167.254 800.719 159.486 832.453 136.629 834.854C112.749 837.362 97.6614 806.963 75.4469 797.691C57.5606 790.226 37.5231 792.376 19.2774 785.876C-2.84916 777.993 -35.3212 777.708 -43.4769 755.322C-52.3539 730.957 -19.5831 708.534 -18.3579 682.575C-17.3712 661.669 -43.1551 643.578 -37.2567 623.528C-31.4041 603.635 -0.886822 602.766 10.2407 585.365C24.0365 563.79 11.3354 524.993 33.5757 512.758C54.901 501.025 78.3393 530.243 102.161 534.794Z" fill="#C147E9"/>
</g>
<g filter="url(#filter6_f_346_220)">
<path fill-rule="evenodd" clip-rule="evenodd" d="M1363.16 527.794C1382.39 531.468 1401.98 526.095 1421.17 529.947C1443.09 534.345 1471.97 532.714 1483.82 552.007C1496.53 572.71 1475.77 600.119 1479.1 624.3C1481.75 643.545 1497.53 658.344 1501.08 677.438C1505.17 699.457 1511.92 724.29 1501.34 743.933C1490.78 763.506 1463.41 765.27 1446.25 779.159C1428.25 793.719 1420.49 825.453 1397.63 827.854C1373.75 830.362 1358.66 799.963 1336.45 790.691C1318.56 783.226 1298.52 785.376 1280.28 778.876C1258.15 770.993 1225.68 770.708 1217.52 748.322C1208.65 723.957 1241.42 701.534 1242.64 675.575C1243.63 654.669 1217.84 636.578 1223.74 616.528C1229.6 596.635 1260.11 595.766 1271.24 578.365C1285.04 556.79 1272.34 517.993 1294.58 505.758C1315.9 494.025 1339.34 523.243 1363.16 527.794Z" fill="#C147E9"/>
</g>
<g filter="url(#filter7_f_346_220)">
<path fill-rule="evenodd" clip-rule="evenodd" d="M1392.78 -303.459C1413.4 -299.378 1434.4 -305.347 1454.98 -301.068C1478.48 -296.183 1509.45 -297.994 1522.15 -276.564C1535.77 -253.568 1513.52 -223.123 1517.08 -196.264C1519.92 -174.886 1536.85 -158.449 1540.65 -137.24C1545.04 -112.782 1552.28 -85.198 1540.93 -63.3786C1529.61 -41.6379 1500.26 -39.6786 1481.86 -24.2508C1462.57 -8.07872 1454.24 27.1707 1429.74 29.8373C1404.13 32.6232 1387.96 -1.14292 1364.14 -11.4413C1344.96 -19.7331 1323.48 -17.3449 1303.92 -24.5654C1280.19 -33.3216 1245.38 -33.6383 1236.63 -58.5037C1227.12 -85.5682 1262.25 -110.474 1263.56 -139.309C1264.62 -162.531 1236.98 -182.626 1243.3 -204.896C1249.58 -226.993 1282.3 -227.958 1294.23 -247.287C1309.02 -271.251 1295.4 -314.346 1319.25 -327.937C1342.11 -340.969 1367.24 -308.515 1392.78 -303.459Z" fill="#C147E9"/>
</g>
<g filter="url(#filter8_f_346_220)">
<path fill-rule="evenodd" clip-rule="evenodd" d="M540.453 987.013C549.941 963.927 548.2 938.086 557.902 915.087C568.979 888.827 574.285 852.327 601.438 842.445C630.576 831.841 659.591 864.757 690.694 866.759C715.449 868.353 737.98 852.402 762.775 852.832C791.367 853.327 824.156 851.219 846.042 869.453C867.849 887.62 863.093 922.268 876.107 947.249C889.748 973.435 927.48 991.223 924.67 1020.39C921.735 1050.86 879.861 1061.97 862.61 1087.36C848.72 1107.8 846.314 1133.38 833.54 1154.52C818.048 1180.15 809.433 1220.65 779.348 1225.13C746.603 1230.02 726.881 1183.36 694.711 1175.22C668.803 1168.66 639.609 1196.27 616.022 1183.79C592.619 1171.41 599.294 1133.06 580.351 1114.73C556.864 1092 505.089 1097.98 495.436 1067.08C486.18 1037.45 528.699 1015.61 540.453 987.013Z" fill="#C147E9"/>
</g>
<g filter="url(#filter9_f_346_220)">
<path fill-rule="evenodd" clip-rule="evenodd" d="M-32.5466 1199.01C-23.0588 1175.93 -24.8003 1150.09 -15.0984 1127.09C-4.02064 1100.83 1.28531 1064.33 28.4382 1054.44C57.5755 1043.84 86.5908 1076.76 117.694 1078.76C142.449 1080.35 164.98 1064.4 189.775 1064.83C218.367 1065.33 251.156 1063.22 273.042 1081.45C294.849 1099.62 290.093 1134.27 303.107 1159.25C316.748 1185.44 354.48 1203.22 351.67 1232.39C348.735 1262.86 306.861 1273.97 289.61 1299.36C275.72 1319.8 273.314 1345.38 260.54 1366.52C245.048 1392.15 236.433 1432.65 206.348 1437.13C173.603 1442.02 153.881 1395.36 121.711 1387.22C95.8031 1380.66 66.6093 1408.27 43.0225 1395.79C19.6191 1383.41 26.2944 1345.06 7.35064 1326.73C-16.1357 1304 -67.9111 1309.98 -77.5643 1279.08C-86.8204 1249.45 -44.3006 1227.61 -32.5466 1199.01Z" fill="#C147E9"/>
</g>
<g filter="url(#filter10_f_346_220)">
<path fill-rule="evenodd" clip-rule="evenodd" d="M1167.45 1199.01C1176.94 1175.93 1175.2 1150.09 1184.9 1127.09C1195.98 1100.83 1201.29 1064.33 1228.44 1054.44C1257.58 1043.84 1286.59 1076.76 1317.69 1078.76C1342.45 1080.35 1364.98 1064.4 1389.77 1064.83C1418.37 1065.33 1451.16 1063.22 1473.04 1081.45C1494.85 1099.62 1490.09 1134.27 1503.11 1159.25C1516.75 1185.44 1554.48 1203.22 1551.67 1232.39C1548.74 1262.86 1506.86 1273.97 1489.61 1299.36C1475.72 1319.8 1473.31 1345.38 1460.54 1366.52C1445.05 1392.15 1436.43 1432.65 1406.35 1437.13C1373.6 1442.02 1353.88 1395.36 1321.71 1387.22C1295.8 1380.66 1266.61 1408.27 1243.02 1395.79C1219.62 1383.41 1226.29 1345.06 1207.35 1326.73C1183.86 1304 1132.09 1309.98 1122.44 1279.08C1113.18 1249.45 1155.7 1227.61 1167.45 1199.01Z" fill="#C147E9"/>
</g>
<g filter="url(#filter11_f_346_220)">
<path fill-rule="evenodd" clip-rule="evenodd" d="M613.453 1433.01C622.941 1409.93 621.2 1384.09 630.902 1361.09C641.979 1334.83 647.285 1298.33 674.438 1288.44C703.576 1277.84 732.591 1310.76 763.694 1312.76C788.449 1314.35 810.98 1298.4 835.775 1298.83C864.367 1299.33 897.156 1297.22 919.042 1315.45C940.849 1333.62 936.093 1368.27 949.107 1393.25C962.748 1419.44 1000.48 1437.22 997.67 1466.39C994.735 1496.86 952.861 1507.97 935.61 1533.36C921.72 1553.8 919.314 1579.38 906.54 1600.52C891.048 1626.15 882.433 1666.65 852.348 1671.13C819.603 1676.02 799.881 1629.36 767.711 1621.22C741.803 1614.66 712.609 1642.27 689.022 1629.79C665.619 1617.41 672.294 1579.06 653.351 1560.73C629.864 1538 578.089 1543.98 568.436 1513.08C559.18 1483.45 601.699 1461.61 613.453 1433.01Z" fill="#C147E9"/>
</g>
</g>
</g>
<defs>
<filter id="filter0_f_346_220" x="-247" y="-760" width="1206" height="1243" filterUnits="userSpaceOnUse" color-interpolation-filters="sRGB">
<feFlood flood-opacity="0" result="BackgroundImageFix"/>
<feBlend mode="normal" in="SourceGraphic" in2="BackgroundImageFix" result="shape"/>
<feGaussianBlur stdDeviation="225" result="effect1_foregroundBlur_346_220"/>
</filter>
<filter id="filter1_f_346_220" x="-372" y="-254" width="1156" height="1187" filterUnits="userSpaceOnUse" color-interpolation-filters="sRGB">
<feFlood flood-opacity="0" result="BackgroundImageFix"/>
<feBlend mode="normal" in="SourceGraphic" in2="BackgroundImageFix" result="shape"/>
<feGaussianBlur stdDeviation="225" result="effect1_foregroundBlur_346_220"/>
</filter>
<filter id="filter2_f_346_220" x="639" y="-194" width="1190" height="1225" filterUnits="userSpaceOnUse" color-interpolation-filters="sRGB">
<feFlood flood-opacity="0" result="BackgroundImageFix"/>
<feBlend mode="normal" in="SourceGraphic" in2="BackgroundImageFix" result="shape"/>
<feGaussianBlur stdDeviation="225" result="effect1_foregroundBlur_346_220"/>
</filter>
<filter id="filter3_f_346_220" x="128" y="-349" width="1169" height="1201" filterUnits="userSpaceOnUse" color-interpolation-filters="sRGB">
<feFlood flood-opacity="0" result="BackgroundImageFix"/>
<feBlend mode="normal" in="SourceGraphic" in2="BackgroundImageFix" result="shape"/>
<feGaussianBlur stdDeviation="225" result="effect1_foregroundBlur_346_220"/>
</filter>
<filter id="filter4_f_346_220" x="143" y="131" width="1191" height="1225" filterUnits="userSpaceOnUse" color-interpolation-filters="sRGB">
<feFlood flood-opacity="0" result="BackgroundImageFix"/>
<feBlend mode="normal" in="SourceGraphic" in2="BackgroundImageFix" result="shape"/>
<feGaussianBlur stdDeviation="225" result="effect1_foregroundBlur_346_220"/>
</filter>
<filter id="filter5_f_346_220" x="-495" y="60" width="1191" height="1225" filterUnits="userSpaceOnUse" color-interpolation-filters="sRGB">
<feFlood flood-opacity="0" result="BackgroundImageFix"/>
<feBlend mode="normal" in="SourceGraphic" in2="BackgroundImageFix" result="shape"/>
<feGaussianBlur stdDeviation="225" result="effect1_foregroundBlur_346_220"/>
</filter>
<filter id="filter6_f_346_220" x="766" y="53" width="1191" height="1225" filterUnits="userSpaceOnUse" color-interpolation-filters="sRGB">
<feFlood flood-opacity="0" result="BackgroundImageFix"/>
<feBlend mode="normal" in="SourceGraphic" in2="BackgroundImageFix" result="shape"/>
<feGaussianBlur stdDeviation="225" result="effect1_foregroundBlur_346_220"/>
</filter>
<filter id="filter7_f_346_220" x="785" y="-781" width="1212" height="1261" filterUnits="userSpaceOnUse" color-interpolation-filters="sRGB">
<feFlood flood-opacity="0" result="BackgroundImageFix"/>
<feBlend mode="normal" in="SourceGraphic" in2="BackgroundImageFix" result="shape"/>
<feGaussianBlur stdDeviation="225" result="effect1_foregroundBlur_346_220"/>
</filter>
<filter id="filter8_f_346_220" x="44.1284" y="390.345" width="1330.69" height="1285.15" filterUnits="userSpaceOnUse" color-interpolation-filters="sRGB">
<feFlood flood-opacity="0" result="BackgroundImageFix"/>
<feBlend mode="normal" in="SourceGraphic" in2="BackgroundImageFix" result="shape"/>
<feGaussianBlur stdDeviation="225" result="effect1_foregroundBlur_346_220"/>
</filter>
<filter id="filter9_f_346_220" x="-528.872" y="602.345" width="1330.69" height="1285.15" filterUnits="userSpaceOnUse" color-interpolation-filters="sRGB">
<feFlood flood-opacity="0" result="BackgroundImageFix"/>
<feBlend mode="normal" in="SourceGraphic" in2="BackgroundImageFix" result="shape"/>
<feGaussianBlur stdDeviation="225" result="effect1_foregroundBlur_346_220"/>
</filter>
<filter id="filter10_f_346_220" x="671.128" y="602.345" width="1330.69" height="1285.15" filterUnits="userSpaceOnUse" color-interpolation-filters="sRGB">
<feFlood flood-opacity="0" result="BackgroundImageFix"/>
<feBlend mode="normal" in="SourceGraphic" in2="BackgroundImageFix" result="shape"/>
<feGaussianBlur stdDeviation="225" result="effect1_foregroundBlur_346_220"/>
</filter>
<filter id="filter11_f_346_220" x="117.128" y="836.345" width="1330.69" height="1285.15" filterUnits="userSpaceOnUse" color-interpolation-filters="sRGB">
<feFlood flood-opacity="0" result="BackgroundImageFix"/>
<feBlend mode="normal" in="SourceGraphic" in2="BackgroundImageFix" result="shape"/>
<feGaussianBlur stdDeviation="225" result="effect1_foregroundBlur_346_220"/>
</filter>
<clipPath id="clip0_346_220">
<rect width="1512" height="982" fill="white"/>
</clipPath>
<clipPath id="clip1_346_220">
<rect width="1512" height="2279" fill="white" transform="translate(0 -469)"/>
</clipPath>
</defs>
</svg>
